<svg width="49" height="48" viewBox="0 0 49 48" fill="none" xmlns="http://www.w3.org/2000/svg">
<path d="M24.5016 38.84C21.4216 38.84 18.3416 37.6599 16.0016 35.3199C11.3016 30.6199 11.3016 23 16.0016 18.3C18.2816 16.02 21.3016 14.78 24.5016 14.78C27.7016 14.78 30.7416 16.04 33.0016 18.3C37.7016 23 37.7016 30.6199 33.0016 35.3199C30.6616 37.6599 27.5816 38.84 24.5016 38.84ZM24.5016 17.8C22.1016 17.8 19.8216 18.7399 18.1216 20.4399C14.6016 23.9599 14.6016 29.68 18.1216 33.2C21.6416 36.72 27.3616 36.7 30.8816 33.2C34.4016 29.68 34.4016 23.9599 30.8816 20.4399C29.1816 18.7399 26.9016 17.8 24.5016 17.8Z" fill="#444444"/>
<path d="M21.3192 31.4999C20.9392 31.4999 20.5392 31.36 20.2592 31.06C19.6792 30.48 19.6792 29.52 20.2592 28.92L23.4392 25.7399C24.0192 25.1599 24.9792 25.1599 25.5792 25.7399C26.1592 26.3199 26.1592 27.2799 25.5792 27.8799L22.3992 31.06C22.0792 31.36 21.6992 31.4999 21.3192 31.4999Z" fill="#444444"/>
<path d="M38.0819 15.02C37.6019 15.02 37.1619 14.84 36.8219 14.5C36.1219 13.8 36.1219 12.66 36.8219 11.98C37.1619 11.64 37.6019 11.46 38.0819 11.46C38.5619 11.46 39.0019 11.64 39.3419 11.98C39.6819 12.32 39.8619 12.76 39.8619 13.24C39.8619 13.72 39.6819 14.16 39.3419 14.5C39.0219 14.84 38.5619 15.02 38.0819 15.02ZM37.9419 13.08V13.38C37.9819 13.42 38.0418 13.4399 38.1018 13.4399C38.3418 13.2999 38.3419 13.16 38.2419 13.08H37.9419Z" fill="#444444"/>
<path d="M38.0808 15.52C37.4608 15.52 36.9008 15.28 36.4608 14.84C35.5808 13.96 35.5808 12.5 36.4608 11.6C36.9008 11.16 37.4608 10.9399 38.0808 10.9399C38.7008 10.9399 39.2608 11.18 39.7008 11.62C40.1408 12.06 40.3607 12.62 40.3607 13.24C40.3607 13.86 40.1208 14.42 39.6808 14.86C39.2808 15.28 38.7008 15.52 38.0808 15.52ZM37.5808 13.74C37.7208 13.88 37.9008 13.9399 38.0808 13.9399C38.2608 13.9399 38.4408 13.86 38.5808 13.74C38.8608 13.46 38.8608 13.02 38.5808 12.74C38.3208 12.48 37.8408 12.48 37.5808 12.74C37.4608 12.86 37.3808 13.04 37.3808 13.24C37.3808 13.42 37.4408 13.6 37.5808 13.74Z" fill="#444444"/>
<path d="M10.9206 42.1802C10.4606 42.1802 10.0006 42.0002 9.66058 41.6602C9.32058 41.3202 9.14062 40.8601 9.14062 40.4001C9.14062 39.9201 9.32058 39.4801 9.66058 39.1401C10.0006 38.8001 10.4406 38.6201 10.9206 38.6201C11.4006 38.6201 11.8406 38.8001 12.1806 39.1401C12.8806 39.8401 12.8806 40.9802 12.1806 41.6602C11.8406 42.0002 11.3806 42.1802 10.9206 42.1802ZM10.8806 40.2001C10.8406 40.2001 10.8006 40.2201 10.7606 40.2601C10.6806 40.3401 10.6806 40.4802 10.7606 40.5602C10.8006 40.6002 10.8606 40.6201 10.9006 40.6201L11.1006 40.4202C11.0406 40.2402 10.9606 40.2001 10.8806 40.2001Z" fill="#444444"/>
<path d="M10.9211 42.6802C10.3411 42.6802 9.74109 42.4601 9.30109 42.0201C8.86109 41.5801 8.62109 41.0001 8.62109 40.4001C8.62109 39.7801 8.86109 39.2202 9.30109 38.7802C9.72109 38.3602 10.3011 38.1201 10.9211 38.1201C11.5411 38.1201 12.1011 38.3602 12.5411 38.8002C13.4411 39.7002 13.4411 41.1402 12.5411 42.0402C12.1011 42.4602 11.5011 42.6802 10.9211 42.6802ZM10.9211 39.6802C10.7411 39.6802 10.5611 39.7401 10.4211 39.8801C10.1411 40.1601 10.1411 40.6001 10.4211 40.8801C10.5611 41.0201 10.7411 41.0801 10.9211 41.0801C11.1011 41.0801 11.3011 41.0001 11.4211 40.8601C11.5411 40.7401 11.6211 40.5601 11.6211 40.3601C11.6211 40.1801 11.5411 39.9801 11.4211 39.8601C11.2811 39.7601 11.1011 39.6802 10.9211 39.6802Z" fill="#444444"/>
<path d="M43.6991 28.6C43.2391 28.6 42.7791 28.42 42.4391 28.08C41.7391 27.38 41.7391 26.24 42.4391 25.54C42.7791 25.2 43.2391 25.12 43.6991 25.02C44.1791 25.02 44.6191 25.2 44.9591 25.54C45.6591 26.24 45.6591 27.38 44.9591 28.08C44.6191 28.42 44.1591 28.6 43.6991 28.6ZM43.5591 26.96C43.5991 27 43.659 27.02 43.719 27.02C43.939 26.88 43.939 26.74 43.859 26.66C43.779 26.58 43.6391 26.58 43.5591 26.66C43.4791 26.74 43.4791 26.88 43.5591 26.96Z" fill="#444444"/>
<path d="M43.7012 29.1C43.1212 29.1 42.5212 28.8799 42.0812 28.4399C41.1813 27.5399 41.1813 26.1 42.0812 25.2C42.5212 24.76 43.0812 24.52 43.7012 24.52C44.3212 24.52 44.8812 24.76 45.3212 25.2C46.2212 26.1 46.2212 27.5399 45.3212 28.4399C44.8812 28.8799 44.3012 29.1 43.7012 29.1ZM43.2012 27.3199C43.3412 27.4599 43.5212 27.52 43.7012 27.52C43.8812 27.52 44.0612 27.4399 44.2012 27.3199C44.4812 27.0399 44.4812 26.5999 44.2012 26.3199C43.9212 26.0399 43.4812 26.0399 43.2012 26.3199C42.9412 26.5799 42.9212 27.0399 43.2012 27.3199Z" fill="#444444"/>
<path d="M5.30063 28.6001C4.84063 28.6001 4.38063 28.4201 4.04063 28.0801C3.34062 27.3801 3.34062 26.2401 4.04063 25.5401C4.74063 24.8401 5.88066 24.8401 6.58066 25.5401C7.28066 26.2401 7.28066 27.3801 6.58066 28.0801C6.20066 28.4201 5.74064 28.6001 5.30063 28.6001ZM5.14066 26.9601C5.22066 27.0401 5.36065 27.0401 5.44065 26.9601C5.52065 26.8801 5.52065 26.7401 5.44065 26.6601C5.36065 26.5801 5.22066 26.5801 5.14066 26.6601C5.06066 26.7401 5.06066 26.8801 5.14066 26.9601Z" fill="#444444"/>
<path d="M5.2989 29.1C4.7189 29.1 4.11891 28.88 3.67891 28.44C2.77891 27.54 2.77891 26.1 3.67891 25.2C4.57891 24.3 6.0389 24.32 6.9189 25.2C7.8189 26.1 7.8189 27.54 6.9189 28.44C6.4589 28.88 5.8789 29.1 5.2989 29.1ZM4.77894 27.32C5.05894 27.6 5.49894 27.6 5.77894 27.32C6.05894 27.04 6.05894 26.58 5.77894 26.32C5.49894 26.04 5.05894 26.04 4.77894 26.32C4.51894 26.58 4.51894 27.04 4.77894 27.32Z" fill="#444444"/>
<path d="M38.0819 42.18C37.6219 42.18 37.1619 42 36.8219 41.66C36.1219 40.96 36.1219 39.82 36.8219 39.12C37.5219 38.42 38.6619 38.42 39.3619 39.12C39.7019 39.46 39.8819 39.9 39.8819 40.38C39.8819 40.86 39.7019 41.3 39.3619 41.64C39.0019 42 38.5419 42.18 38.0819 42.18ZM38.0819 40.18C38.0219 40.18 37.9819 40.2 37.9419 40.24V40.54C38.0219 40.62 38.1619 40.62 38.2419 40.54C38.3219 40.46 38.3219 40.32 38.2419 40.24C38.1819 40.2 38.1419 40.18 38.0819 40.18Z" fill="#444444"/>
<path d="M38.0802 42.68C37.5002 42.68 36.9002 42.46 36.4602 42.02C35.5602 41.12 35.5602 39.68 36.4602 38.78C37.3602 37.88 38.8001 37.88 39.7001 38.78C40.1401 39.22 40.3801 39.78 40.3801 40.4C40.3801 41.02 40.1401 41.58 39.7001 42.02C39.2601 42.46 38.6602 42.68 38.0802 42.68ZM37.5802 40.9C37.8602 41.18 38.3002 41.18 38.5802 40.9C38.8602 40.62 38.8602 40.18 38.5802 39.9C38.3002 39.62 37.8602 39.62 37.5802 39.9C37.4402 40.04 37.3801 40.22 37.3801 40.4C37.3801 40.58 37.4402 40.76 37.5802 40.9Z" fill="#444444"/>
<path d="M10.9206 15.02C10.4406 15.02 10.0006 14.84 9.66058 14.5C9.32058 14.16 9.14062 13.72 9.14062 13.24C9.14062 12.76 9.32058 12.32 9.66058 11.98C10.0006 11.64 10.4406 11.46 10.9206 11.46C11.4006 11.46 11.8406 11.64 12.1806 11.98C12.8806 12.68 12.8806 13.82 12.1806 14.52C11.8406 14.84 11.4006 15.02 10.9206 15.02ZM10.7606 13.38C10.8006 13.42 10.8606 13.4399 10.9006 13.4399L11.1006 13.24L10.9006 13.04C10.6806 13.16 10.6806 13.3 10.7606 13.38Z" fill="#444444"/>
<path d="M10.9206 15.52C10.3006 15.52 9.7406 15.28 9.3006 14.84C8.8806 14.42 8.64062 13.84 8.64062 13.22C8.64062 12.6 8.88062 12.04 9.32062 11.6C9.74062 11.18 10.3206 10.9399 10.9406 10.9399C11.5606 10.9399 12.1206 11.18 12.5606 11.62C13.4406 12.52 13.4406 13.96 12.5606 14.86C12.1006 15.28 11.5406 15.52 10.9206 15.52ZM10.4206 13.74C10.5606 13.88 10.7406 13.96 10.9206 13.96C11.1006 13.96 11.2806 13.88 11.4206 13.76C11.5606 13.64 11.6206 13.44 11.6206 13.26C11.6206 13.08 11.5406 12.88 11.4006 12.76C11.1606 12.5 10.6606 12.5 10.4006 12.76C10.1406 13 10.1406 13.46 10.4206 13.74Z" fill="#444444"/>
<path d="M24.4988 9.4C24.0188 9.4 23.5788 9.21998 23.2388 8.87998C22.8988 8.53998 22.7188 8.09997 22.7188 7.61997C22.7188 7.13997 22.8988 6.69996 23.2388 6.35996C23.9388 5.65996 25.0788 5.65996 25.7788 6.35996C26.4788 7.05996 26.4788 8.19998 25.7788 8.87998C25.4388 9.19998 24.9788 9.4 24.4988 9.4ZM24.6388 7.45994L24.3388 7.75999C24.4188 7.83999 24.5588 7.83999 24.6388 7.75999V7.45994ZM24.3588 7.45994C24.2788 7.53994 24.2788 7.67999 24.3588 7.75999L24.6588 7.45994H24.3588Z" fill="#444444"/>
<path d="M24.4988 9.89998C23.8788 9.89998 23.3188 9.65992 22.8788 9.21992C22.4588 8.79992 22.2188 8.21993 22.2188 7.59993C22.2188 6.97993 22.4588 6.41993 22.8988 5.97993C23.7988 5.07993 25.2388 5.07993 26.1388 5.97993C27.0188 6.87993 27.0188 8.31992 26.1388 9.21992C25.6988 9.65992 25.1188 9.89998 24.4988 9.89998ZM24.9988 7.09993L23.9988 8.09993C24.2788 8.37993 24.7188 8.37993 24.9988 8.09993C25.1388 7.95993 25.1988 7.77993 25.1988 7.59993C25.1988 7.41993 25.1388 7.23993 24.9988 7.09993ZM24.4988 6.89998C24.3188 6.89998 24.1188 6.97995 23.9988 7.11995C23.7188 7.39995 23.7188 7.83995 23.9988 8.11995L24.9988 7.11995C24.8788 6.97995 24.6988 6.89998 24.4988 6.89998Z" fill="#444444"/>
</svg>
