<svg width="48" height="48" viewBox="0 0 48 48" fill="none" xmlns="http://www.w3.org/2000/svg">
<path d="M13.0419 32.52C12.6619 32.52 12.2819 32.38 11.9819 32.08C11.4019 31.5 11.4019 30.54 11.9819 29.96L18.0819 23.86C18.6619 23.28 19.6219 23.28 20.2019 23.86C20.7819 24.44 20.7819 25.4 20.2019 25.98L14.1019 32.08C13.8019 32.36 13.4219 32.52 13.0419 32.52Z" fill="#444444"/>
<path d="M19.2005 32.58C18.8205 32.58 18.4405 32.44 18.1405 32.14L12.0405 26.04C11.4605 25.46 11.4605 24.5 12.0405 23.92C12.6205 23.34 13.5805 23.34 14.1605 23.92L20.2605 30.02C20.8405 30.6 20.8405 31.56 20.2605 32.14C19.9605 32.44 19.5805 32.58 19.2005 32.58Z" fill="#444444"/>
<path d="M27.0786 30C25.9786 30 25.0586 29.1 25.0586 28C25.0586 26.9 25.9386 26 27.0386 26H27.0786C28.1786 26 29.0786 26.9 29.0786 28C29.0786 29.1 28.1986 30 27.0786 30Z" fill="#444444"/>
<path d="M34.9614 30C33.8614 30 32.9414 29.1 32.9414 28C32.9414 26.9 33.8214 26 34.9214 26H34.9614C36.0614 26 36.9614 26.9 36.9614 28C36.9614 29.1 36.0614 30 34.9614 30Z" fill="#444444"/>
<path d="M31 33.94C29.9 33.94 29 33.06 29 31.96V31.92C29 30.82 29.9 29.92 31 29.92C32.1 29.92 33 30.82 33 31.92C33 33.02 32.12 33.94 31 33.94Z" fill="#444444"/>
<path d="M31 26.06C29.9 26.06 29 25.18 29 24.08V24.04C29 22.94 29.9 22.04 31 22.04C32.1 22.04 33 22.94 33 24.04C33 25.14 32.12 26.06 31 26.06Z" fill="#444444"/>
<path d="M30 45.5H18C7.14 45.5 2.5 40.86 2.5 30V26C2.5 15.14 7.14 10.5 18 10.5H30C40.86 10.5 45.5 15.14 45.5 26V30C45.5 40.86 40.86 45.5 30 45.5ZM18 13.5C8.78 13.5 5.5 16.78 5.5 26V30C5.5 39.22 8.78 42.5 18 42.5H30C39.22 42.5 42.5 39.22 42.5 30V26C42.5 16.78 39.22 13.5 30 13.5H18Z" fill="#444444"/>
<path d="M25.9805 13.5H23.9805C22.0605 13.5 20.4805 11.92 20.4805 10C20.4805 8.08 22.0405 6.5 23.9605 6.5C24.2805 6.5 24.5005 6.28 24.5205 6L24.5405 3.98C24.5605 3.16 25.2205 2.5 26.0405 2.5H26.0605C26.8805 2.52 27.5605 3.2 27.5405 4.02L27.5205 6.04C27.5005 7.94 25.9205 9.5 24.0205 9.5C23.7005 9.5 23.5005 9.72 23.5005 10C23.5005 10.28 23.7205 10.5 24.0005 10.5H26.0005C26.8205 10.5 27.5005 11.18 27.5005 12C27.5005 12.82 26.8005 13.5 25.9805 13.5Z" fill="#444444"/>
</svg>
