<svg width="49" height="48" viewBox="0 0 49 48" fill="none" xmlns="http://www.w3.org/2000/svg">
<path d="M34.9794 45.5H14.0194C8.41937 45.5 4.85937 42.16 4.53937 36.58L3.49937 20.08C3.33937 17.58 4.19937 15.18 5.91937 13.36C7.61937 11.54 10.0194 10.5 12.4994 10.5C13.1394 10.5 13.7594 10.12 14.0594 9.52L15.4994 6.66C16.6794 4.32 19.6394 2.5 22.2194 2.5H26.7994C29.3794 2.5 32.3194 4.32 33.4994 6.64L34.9394 9.56C35.2394 10.12 35.8394 10.5 36.4994 10.5C38.9794 10.5 41.3794 11.54 43.0794 13.36C44.7994 15.2 45.6594 17.58 45.4994 20.08L44.4594 36.6C44.0994 42.26 40.6394 45.5 34.9794 45.5ZM22.2194 5.5C20.7394 5.5 18.8594 6.66 18.1794 8L16.7394 10.88C15.8994 12.5 14.2794 13.5 12.4994 13.5C10.8194 13.5 9.25937 14.18 8.09937 15.4C6.95937 16.62 6.37937 18.22 6.49937 19.88L7.53937 36.4C7.77937 40.44 9.95937 42.5 14.0194 42.5H34.9794C39.0194 42.5 41.1994 40.44 41.4594 36.4L42.4994 19.88C42.5994 18.22 42.0394 16.62 40.8994 15.4C39.7394 14.18 38.1794 13.5 36.4994 13.5C34.7194 13.5 33.0994 12.5 32.2594 10.92L30.7994 8C30.1394 6.68 28.2594 5.52 26.7794 5.52H22.2194V5.5Z" fill="#444444"/>
<path d="M27.5 17.5H21.5C20.68 17.5 20 16.82 20 16C20 15.18 20.68 14.5 21.5 14.5H27.5C28.32 14.5 29 15.18 29 16C29 16.82 28.32 17.5 27.5 17.5Z" fill="#444444"/>
<path d="M24.5 37.5C20.08 37.5 16.5 33.92 16.5 29.5C16.5 25.08 20.08 21.5 24.5 21.5C28.92 21.5 32.5 25.08 32.5 29.5C32.5 33.92 28.92 37.5 24.5 37.5ZM24.5 24.5C21.74 24.5 19.5 26.74 19.5 29.5C19.5 32.26 21.74 34.5 24.5 34.5C27.26 34.5 29.5 32.26 29.5 29.5C29.5 26.74 27.26 24.5 24.5 24.5Z" fill="#444444"/>
</svg>
