<svg width="48" height="48" viewBox="0 0 48 48" fill="none" xmlns="http://www.w3.org/2000/svg">
<path d="M17 25.5C16.18 25.5 15.5 24.82 15.5 24V14.4399C15.5 13.6199 16.18 12.9399 17 12.9399C17.82 12.9399 18.5 13.6199 18.5 14.4399V24C18.5 24.82 17.82 25.5 17 25.5Z" fill="#444444"/>
<path d="M17 45.5C16.18 45.5 15.5 44.82 15.5 44V38C15.5 37.18 16.18 36.5 17 36.5C17.82 36.5 18.5 37.18 18.5 38V44C18.5 44.82 17.82 45.5 17 45.5Z" fill="#444444"/>
<path d="M31 45.5C30.18 45.5 29.5 44.82 29.5 44V14.4399C29.5 13.6199 30.18 12.9399 31 12.9399C31.82 12.9399 32.5 13.6199 32.5 14.4399V44C32.5 44.82 31.82 45.5 31 45.5Z" fill="#444444"/>
<path d="M16.5988 15.7H12.0988C11.5188 15.7 11.0189 15.38 10.7589 14.86C10.4989 14.34 10.5589 13.74 10.8989 13.28C11.2789 12.78 11.4989 12.14 11.4989 11.48V9.68005C11.4989 9.04005 11.2789 8.4 10.8989 7.88C10.5589 7.42 10.4989 6.82005 10.7589 6.30005C11.0189 5.80005 11.5388 5.45996 12.0988 5.45996H16.5988C19.4188 5.45996 21.6989 7.74006 21.6989 10.5601C21.6989 11.9401 21.1589 13.2201 20.1789 14.1801C19.2589 15.1601 17.9788 15.7 16.5988 15.7ZM14.3789 12.7H16.5988C17.1588 12.7 17.6789 12.48 18.0589 12.1C18.4789 11.7 18.6989 11.18 18.6989 10.6C18.6989 9.43998 17.7588 8.5 16.5988 8.5H14.3789C14.4589 8.9 14.4989 9.29995 14.4989 9.69995V11.5C14.4989 11.9 14.4589 12.3 14.3789 12.7Z" fill="#444444"/>
<path d="M8.49951 17.5C7.17951 17.5 5.41953 17.0799 3.57953 15.4399C2.95953 14.8799 2.51953 13.88 2.51953 13V8.31995C2.51953 7.53995 2.87954 6.61996 3.39954 6.07996C5.25954 4.13996 7.17953 3.71995 8.45953 3.69995C8.47953 3.69995 8.49953 3.69995 8.51953 3.69995C10.0995 3.69995 11.6595 4.33996 12.7595 5.45996C12.9595 5.65996 13.1595 5.90001 13.3395 6.14001C14.0795 7.12001 14.4995 8.39995 14.4995 9.69995V11.5C14.4995 12.8 14.0795 14.08 13.2995 15.1C12.2995 16.44 10.7595 17.3 9.09949 17.46C8.91949 17.48 8.69951 17.5 8.49951 17.5ZM8.49951 6.69995C8.47951 6.69995 8.47953 6.69995 8.45953 6.69995C7.43953 6.71995 6.43949 7.22003 5.53949 8.16003C5.53949 8.16003 5.49951 8.29999 5.49951 8.35999V13.02C5.49951 13.06 5.55949 13.2 5.59949 13.26C6.61949 14.16 7.7395 14.62 8.7995 14.5C9.6395 14.42 10.3795 13.9999 10.8995 13.3199C11.2795 12.8199 11.4995 12.18 11.4995 11.52V9.71997C11.4995 9.07997 11.2795 8.44004 10.8995 7.92004C10.7995 7.76004 10.6995 7.67996 10.6195 7.57996C10.0595 7.01996 9.29951 6.69995 8.49951 6.69995Z" fill="#444444"/>
<path d="M35.9008 15.7H31.4008C30.0208 15.7 28.7408 15.1601 27.7808 14.1801C26.8408 13.2601 26.3008 11.98 26.3008 10.6C26.3008 7.77998 28.5808 5.5 31.4008 5.5H35.9008C36.4608 5.5 36.9808 5.81997 37.2408 6.33997C37.5008 6.83997 37.4408 7.46004 37.1008 7.92004C36.7208 8.42004 36.5008 9.05997 36.5008 9.71997V11.52C36.5008 12.18 36.7208 12.7999 37.1008 13.3199C37.4408 13.7799 37.5008 14.38 37.2408 14.9C37.0008 15.38 36.4808 15.7 35.9008 15.7ZM31.4008 8.5C30.2408 8.5 29.3008 9.43998 29.3008 10.6C29.3008 11.16 29.5208 11.6801 29.9008 12.0601C30.3008 12.4801 30.8208 12.7 31.4008 12.7H33.6208C33.5408 12.3 33.5008 11.9 33.5008 11.5V9.69995C33.5008 9.29995 33.5408 8.9 33.6208 8.5H31.4008Z" fill="#444444"/>
<path d="M39.5005 17.5C39.2805 17.5 39.0805 17.48 38.8805 17.48C37.2205 17.32 35.7005 16.46 34.6805 15.12C33.9005 14.1 33.4805 12.82 33.4805 11.52V9.71997C33.4805 8.41997 33.9005 7.14 34.6805 6.12C34.8205 5.92 35.0205 5.67998 35.2205 5.47998C36.3405 4.35998 37.8805 3.71997 39.4605 3.71997C39.4805 3.71997 39.5005 3.71997 39.5205 3.71997C40.8005 3.73997 42.7205 4.15998 44.5805 6.09998C45.1005 6.63998 45.4605 7.55997 45.4605 8.33997V13.02C45.4605 13.9 45.0205 14.8999 44.4005 15.4399C42.5805 17.0799 40.8205 17.5 39.5005 17.5ZM39.5005 6.69995C38.7005 6.69995 37.9205 7.01996 37.3805 7.57996C37.3005 7.65996 37.2205 7.75999 37.1405 7.85999C36.7205 8.41999 36.5005 9.05995 36.5005 9.69995V11.5C36.5005 12.16 36.7205 12.78 37.1005 13.3C37.6205 13.98 38.3605 14.4 39.2005 14.5C40.2605 14.62 41.3805 14.16 42.4605 13.22C42.4605 13.22 42.5005 13.08 42.5205 13.02V8.35999C42.5205 8.31999 42.4605 8.18001 42.4405 8.14001C41.5805 7.24001 40.5805 6.73999 39.5605 6.73999C39.5205 6.69999 39.5205 6.69995 39.5005 6.69995Z" fill="#444444"/>
<path d="M17 39.5C14.52 39.5 12.5 37.48 12.5 35V27C12.5 24.52 14.52 22.5 17 22.5C19.48 22.5 21.5 24.52 21.5 27V35C21.5 37.48 19.48 39.5 17 39.5ZM17 25.5C16.18 25.5 15.5 26.18 15.5 27V35C15.5 35.82 16.18 36.5 17 36.5C17.82 36.5 18.5 35.82 18.5 35V27C18.5 26.18 17.82 25.5 17 25.5Z" fill="#444444"/>
</svg>
