<svg width="20" height="21" viewBox="0 0 20 21" fill="none" xmlns="http://www.w3.org/2000/svg">
<path d="M14.5417 19.4582C13.6 19.4582 12.6084 19.2332 11.5834 18.7998C10.5834 18.3748 9.57502 17.7915 8.59169 17.0832C7.61669 16.3665 6.67502 15.5665 5.78335 14.6915C4.90002 13.7998 4.10002 12.8582 3.39169 11.8915C2.67502 10.8915 2.10002 9.8915 1.69169 8.92484C1.25835 7.8915 1.04169 6.8915 1.04169 5.94984C1.04169 5.29984 1.15835 4.68317 1.38335 4.10817C1.61669 3.5165 1.99169 2.9665 2.50002 2.4915C3.14169 1.85817 3.87502 1.5415 4.65835 1.5415C4.98335 1.5415 5.31669 1.6165 5.60002 1.74984C5.92502 1.89984 6.20002 2.12484 6.40002 2.42484L8.33335 5.14984C8.50835 5.3915 8.64169 5.62484 8.73335 5.85817C8.84169 6.10817 8.90002 6.35817 8.90002 6.59984C8.90002 6.9165 8.80835 7.22484 8.63335 7.5165C8.50835 7.7415 8.31669 7.98317 8.07502 8.22484L7.50835 8.8165C7.51669 8.8415 7.52502 8.85817 7.53335 8.87484C7.63335 9.04984 7.83335 9.34984 8.21669 9.79984C8.62502 10.2665 9.00835 10.6915 9.39169 11.0832C9.88335 11.5665 10.2917 11.9498 10.675 12.2665C11.15 12.6665 11.4584 12.8665 11.6417 12.9582L11.625 12.9998L12.2334 12.3998C12.4917 12.1415 12.7417 11.9498 12.9834 11.8248C13.4417 11.5415 14.025 11.4915 14.6084 11.7332C14.825 11.8248 15.0584 11.9498 15.3084 12.1248L18.075 14.0915C18.3834 14.2998 18.6084 14.5665 18.7417 14.8832C18.8667 15.1998 18.925 15.4915 18.925 15.7832C18.925 16.1832 18.8334 16.5832 18.6584 16.9582C18.4834 17.3332 18.2667 17.6582 17.9917 17.9582C17.5167 18.4832 17 18.8582 16.4 19.0998C15.825 19.3332 15.2 19.4582 14.5417 19.4582ZM4.65835 2.7915C4.20002 2.7915 3.77502 2.9915 3.36669 3.3915C2.98335 3.74984 2.71669 4.1415 2.55002 4.5665C2.37502 4.99984 2.29169 5.45817 2.29169 5.94984C2.29169 6.72484 2.47502 7.5665 2.84169 8.43317C3.21669 9.3165 3.74169 10.2332 4.40835 11.1498C5.07502 12.0665 5.83335 12.9582 6.66669 13.7998C7.50002 14.6248 8.40002 15.3915 9.32502 16.0665C10.225 16.7248 11.15 17.2582 12.0667 17.6415C13.4917 18.2498 14.825 18.3915 15.925 17.9332C16.35 17.7582 16.725 17.4915 17.0667 17.1082C17.2584 16.8998 17.4084 16.6748 17.5334 16.4082C17.6334 16.1998 17.6834 15.9832 17.6834 15.7665C17.6834 15.6332 17.6584 15.4998 17.5917 15.3498C17.5667 15.2998 17.5167 15.2082 17.3584 15.0998L14.5917 13.1332C14.425 13.0165 14.275 12.9332 14.1334 12.8748C13.95 12.7998 13.875 12.7248 13.5917 12.8998C13.425 12.9832 13.275 13.1082 13.1084 13.2748L12.475 13.8998C12.15 14.2165 11.65 14.2915 11.2667 14.1498L11.0417 14.0498C10.7 13.8665 10.3 13.5832 9.85835 13.2082C9.45835 12.8665 9.02502 12.4665 8.50002 11.9498C8.09169 11.5332 7.68335 11.0915 7.25835 10.5998C6.86669 10.1415 6.58335 9.74984 6.40835 9.42484L6.30835 9.17484C6.25835 8.98317 6.24169 8.87484 6.24169 8.75817C6.24169 8.45817 6.35002 8.1915 6.55835 7.98317L7.18335 7.33317C7.35002 7.1665 7.47502 7.00817 7.55835 6.8665C7.62502 6.75817 7.65002 6.6665 7.65002 6.58317C7.65002 6.5165 7.62502 6.4165 7.58335 6.3165C7.52502 6.18317 7.43335 6.03317 7.31669 5.87484L5.38335 3.1415C5.30002 3.02484 5.20002 2.9415 5.07502 2.88317C4.94169 2.82484 4.80002 2.7915 4.65835 2.7915ZM11.625 13.0082L11.4917 13.5748L11.7167 12.9915C11.675 12.9832 11.6417 12.9915 11.625 13.0082Z" fill="#CBCBCB"/>
<path d="M15.4167 8.62516C15.075 8.62516 14.7917 8.34183 14.7917 8.00016C14.7917 7.70016 14.4917 7.07516 13.9917 6.54183C13.5 6.01683 12.9583 5.7085 12.5 5.7085C12.1583 5.7085 11.875 5.42516 11.875 5.0835C11.875 4.74183 12.1583 4.4585 12.5 4.4585C13.3083 4.4585 14.1583 4.89183 14.9 5.6835C15.5917 6.42516 16.0417 7.3335 16.0417 8.00016C16.0417 8.34183 15.7583 8.62516 15.4167 8.62516Z" fill="#CBCBCB"/>
<path d="M18.3333 8.62484C17.9917 8.62484 17.7083 8.3415 17.7083 7.99984C17.7083 5.12484 15.375 2.7915 12.5 2.7915C12.1583 2.7915 11.875 2.50817 11.875 2.1665C11.875 1.82484 12.1583 1.5415 12.5 1.5415C16.0583 1.5415 18.9583 4.4415 18.9583 7.99984C18.9583 8.3415 18.675 8.62484 18.3333 8.62484Z" fill="#CBCBCB"/>
</svg>
