<svg width="40" height="40" viewBox="0 0 40 40" fill="none" xmlns="http://www.w3.org/2000/svg">
<rect width="40" height="40" rx="20" fill="#AECDFB"/>
<path d="M16 30.3199C15.72 30.3199 15.43 30.2499 15.17 30.1099C14.6 29.8099 14.25 29.2099 14.25 28.5699V27.15C11.23 26.84 9.25 24.6199 9.25 21.4399V15.4399C9.25 11.9999 11.56 9.68994 15 9.68994H25C28.44 9.68994 30.75 11.9999 30.75 15.4399V21.4399C30.75 24.8799 28.44 27.1899 25 27.1899H21.23L16.97 30.03C16.68 30.22 16.34 30.3199 16 30.3199ZM15 11.1799C12.42 11.1799 10.75 12.8499 10.75 15.4299V21.43C10.75 24.01 12.42 25.68 15 25.68C15.41 25.68 15.75 26.02 15.75 26.43V28.56C15.75 28.69 15.83 28.75 15.88 28.78C15.93 28.81 16.03 28.84 16.14 28.77L20.59 25.81C20.71 25.73 20.86 25.68 21.01 25.68H25.01C27.59 25.68 29.26 24.01 29.26 21.43V15.4299C29.26 12.8499 27.59 11.1799 25.01 11.1799H15Z" fill="#2D2D2D"/>
<path d="M19.9998 20.1099C19.5898 20.1099 19.2498 19.7699 19.2498 19.3599V19.1499C19.2498 17.9899 20.0998 17.4199 20.4198 17.1999C20.7898 16.9499 20.9098 16.7799 20.9098 16.5199C20.9098 16.0199 20.4998 15.6099 19.9998 15.6099C19.4998 15.6099 19.0898 16.0199 19.0898 16.5199C19.0898 16.9299 18.7498 17.2699 18.3398 17.2699C17.9298 17.2699 17.5898 16.9299 17.5898 16.5199C17.5898 15.1899 18.6698 14.1099 19.9998 14.1099C21.3298 14.1099 22.4098 15.1899 22.4098 16.5199C22.4098 17.6599 21.5698 18.2299 21.2598 18.4399C20.8698 18.6999 20.7498 18.8699 20.7498 19.1499V19.3599C20.7498 19.7799 20.4098 20.1099 19.9998 20.1099Z" fill="#2D2D2D"/>
<path d="M20 22.6001C19.58 22.6001 19.25 22.2601 19.25 21.8501C19.25 21.4401 19.59 21.1001 20 21.1001C20.41 21.1001 20.75 21.4401 20.75 21.8501C20.75 22.2601 20.42 22.6001 20 22.6001Z" fill="#2D2D2D"/>
</svg>
