<svg width="20" height="21" viewBox="0 0 20 21" fill="none" xmlns="http://www.w3.org/2000/svg">
<path d="M2.75023 19.4583C2.45023 19.4583 2.15856 19.3833 1.90856 19.2333C1.35023 18.9083 1.03357 18.2583 1.03357 17.4499V7.98328C1.03357 6.20828 2.47522 4.7666 4.25022 4.7666H10.7336C12.5086 4.7666 13.9502 6.20828 13.9502 7.98328V17.4499C13.9502 18.2583 13.6336 18.8999 13.0752 19.2333C12.5169 19.5583 11.8002 19.5249 11.0919 19.1333L7.81692 17.3083C7.65858 17.2166 7.32522 17.2166 7.16689 17.3083L3.8919 19.1333C3.50856 19.3499 3.1169 19.4583 2.75023 19.4583ZM4.25857 6.02494C3.17523 6.02494 2.29191 6.90826 2.29191 7.9916V17.4583C2.29191 17.7999 2.39191 18.0666 2.55024 18.1583C2.70858 18.2499 2.99192 18.2083 3.29192 18.0416L6.56692 16.2166C7.10025 15.9249 7.90024 15.9249 8.43357 16.2166L11.7086 18.0416C12.0086 18.2083 12.2836 18.2499 12.4502 18.1583C12.6086 18.0666 12.7086 17.7999 12.7086 17.4583V7.9916C12.7086 6.90826 11.8253 6.02494 10.7419 6.02494H4.25857Z" fill="#F45E0C"/>
<path d="M12.2416 19.4582C11.875 19.4582 11.4916 19.3499 11.1 19.1415L7.82497 17.3165C7.66664 17.2332 7.32494 17.2332 7.16661 17.3165L3.89995 19.1415C3.19162 19.5332 2.46662 19.5665 1.91662 19.2415C1.35828 18.9165 1.04163 18.2665 1.04163 17.4665V7.99986C1.04163 6.22486 2.48328 4.7832 4.25828 4.7832H10.7416C12.5166 4.7832 13.9583 6.22486 13.9583 7.99986V17.4665C13.9583 18.2665 13.6416 18.9165 13.0833 19.2415C12.8333 19.3832 12.55 19.4582 12.2416 19.4582ZM7.49996 15.9999C7.83329 15.9999 8.15829 16.0749 8.43329 16.2249L11.7083 18.0499C12.0083 18.2165 12.2916 18.2582 12.45 18.1582C12.6083 18.0665 12.7083 17.7999 12.7083 17.4582V7.99152C12.7083 6.90818 11.825 6.02486 10.7416 6.02486H4.25828C3.17495 6.02486 2.29163 6.90818 2.29163 7.99152V17.4582C2.29163 17.7999 2.39162 18.0665 2.54996 18.1582C2.70829 18.2499 2.99164 18.2082 3.29164 18.0415L6.56663 16.2165C6.8333 16.0748 7.16663 15.9999 7.49996 15.9999Z" fill="#F45E0C"/>
<path d="M17.2416 16.2248C16.875 16.2248 16.4916 16.1165 16.1 15.9081L13.025 14.1915C12.825 14.0831 12.7083 13.8748 12.7083 13.6498V7.9998C12.7083 6.91646 11.825 6.03314 10.7416 6.03314H6.66663C6.32496 6.03314 6.04163 5.74981 6.04163 5.40814V4.76646C6.04163 2.99146 7.48328 1.5498 9.25828 1.5498H15.7416C17.5166 1.5498 18.9583 2.99146 18.9583 4.76646V14.2331C18.9583 15.0331 18.6416 15.6831 18.0833 16.0081C17.8333 16.1498 17.55 16.2248 17.2416 16.2248ZM13.9583 13.2748L16.7083 14.8165C17.0083 14.9831 17.2833 15.0248 17.45 14.9248C17.6166 14.8248 17.7083 14.5665 17.7083 14.2248V4.75812C17.7083 3.67478 16.825 2.79146 15.7416 2.79146H9.25828C8.17495 2.79146 7.29163 3.67478 7.29163 4.75812V4.7748H10.7416C12.5166 4.7748 13.9583 6.21645 13.9583 7.99146V13.2748Z" fill="#F45E0C"/>
</svg>
