<svg width="20" height="20" viewBox="0 0 20 20" fill="none" xmlns="http://www.w3.org/2000/svg">
<path d="M10 17.7082H5.83335C2.79169 17.7082 1.04169 15.9582 1.04169 12.9165V7.08317C1.04169 4.0415 2.79169 2.2915 5.83335 2.2915H14.1667C17.2084 2.2915 18.9584 4.0415 18.9584 7.08317V9.58317C18.9584 9.92484 18.675 10.2082 18.3334 10.2082C17.9917 10.2082 17.7084 9.92484 17.7084 9.58317V7.08317C17.7084 4.69984 16.55 3.5415 14.1667 3.5415H5.83335C3.45002 3.5415 2.29169 4.69984 2.29169 7.08317V12.9165C2.29169 15.2998 3.45002 16.4582 5.83335 16.4582H10C10.3417 16.4582 10.625 16.7415 10.625 17.0832C10.625 17.4248 10.3417 17.7082 10 17.7082Z" fill="#CBCBCB"/>
<path d="M9.99979 10.725C9.29979 10.725 8.59146 10.5083 8.0498 10.0666L5.44146 7.9833C5.17479 7.76663 5.1248 7.37497 5.34146 7.10831C5.55813 6.84164 5.94979 6.79998 6.21645 7.00831L8.82479 9.09164C9.45813 9.59998 10.5331 9.59998 11.1665 9.09164L13.7748 7.00831C14.0415 6.79164 14.4331 6.83331 14.6498 7.10831C14.8665 7.37497 14.8248 7.77496 14.5498 7.9833L11.9415 10.0666C11.4081 10.5083 10.6998 10.725 9.99979 10.725Z" fill="#CBCBCB"/>
<path d="M13.1834 18.1498C12.8668 18.1498 12.5668 18.0332 12.3501 17.8165C12.0918 17.5582 11.9751 17.1832 12.0334 16.7915L12.1918 15.6665C12.2334 15.3748 12.4084 15.0248 12.6168 14.8165L15.5667 11.8665C15.9667 11.4665 16.3584 11.2582 16.7834 11.2165C17.3001 11.1665 17.8167 11.3832 18.3001 11.8665C18.7834 12.3498 19.0001 12.8582 18.9501 13.3832C18.9084 13.7998 18.6917 14.1998 18.3001 14.5998L15.3501 17.5498C15.1418 17.7582 14.7917 17.9332 14.5001 17.9749L13.3751 18.1332C13.3084 18.1415 13.2501 18.1498 13.1834 18.1498ZM16.9251 12.4582C16.9167 12.4582 16.9084 12.4582 16.9001 12.4582C16.7834 12.4665 16.6251 12.5748 16.4501 12.7498L13.5001 15.6998C13.4751 15.7248 13.4334 15.8082 13.4334 15.8415L13.2834 16.8832L14.3251 16.7332C14.3584 16.7248 14.4417 16.6832 14.4667 16.6582L17.4167 13.7082C17.5917 13.5249 17.7001 13.3748 17.7084 13.2582C17.7251 13.0915 17.5584 12.8915 17.4167 12.7498C17.2834 12.6165 17.0917 12.4582 16.9251 12.4582Z" fill="#CBCBCB"/>
<path d="M17.4335 15.2083C17.3751 15.2083 17.3168 15.1999 17.2668 15.1833C16.1668 14.8749 15.2918 14 14.9835 12.9C14.8918 12.5666 15.0834 12.2249 15.4168 12.1249C15.7501 12.0333 16.0918 12.2249 16.1835 12.5583C16.3751 13.2416 16.9168 13.7833 17.6001 13.9749C17.9334 14.0666 18.1251 14.4166 18.0335 14.75C17.9585 15.025 17.7085 15.2083 17.4335 15.2083Z" fill="#CBCBCB"/>
</svg>
