<svg width="48" height="48" viewBox="0 0 48 48" fill="none" xmlns="http://www.w3.org/2000/svg">
<path d="M34 42.5H14C6.7 42.5 2.5 38.3 2.5 31V17C2.5 9.7 6.7 5.5 14 5.5H34C41.3 5.5 45.5 9.7 45.5 17V31C45.5 38.3 41.3 42.5 34 42.5ZM14 8.5C8.28 8.5 5.5 11.28 5.5 17V31C5.5 36.72 8.28 39.5 14 39.5H34C39.72 39.5 42.5 36.72 42.5 31V17C42.5 11.28 39.72 8.5 34 8.5H14Z" fill="#0C68F4"/>
<path d="M23.9976 25.7399C22.3176 25.7399 20.6176 25.2199 19.3176 24.1599L13.0576 19.1599C12.4176 18.6399 12.2976 17.6999 12.8176 17.0599C13.3376 16.4199 14.2776 16.2999 14.9176 16.8199L21.1776 21.8199C22.6976 23.0399 25.2776 23.0399 26.7976 21.8199L33.0576 16.8199C33.6976 16.2999 34.6576 16.3999 35.1576 17.0599C35.6776 17.6999 35.5776 18.6599 34.9176 19.1599L28.6576 24.1599C27.3776 25.2199 25.6776 25.7399 23.9976 25.7399Z" fill="#0C68F4"/>
</svg>
