<svg width="32" height="32" viewBox="0 0 32 32" fill="none" xmlns="http://www.w3.org/2000/svg">
<path fill-rule="evenodd" clip-rule="evenodd" d="M7.0727 5.16406L7.93714 6.77768C9.98034 10.5916 12.8974 11.7617 14.7142 11.9922V11.3094C14.7142 8.00885 17.3898 5.33322 20.6904 5.33322C23.9909 5.33322 26.6666 8.00885 26.6666 11.3094V13.3332C26.6666 22.1716 20.4006 27.9999 13.1904 27.9999C10.0217 27.9999 7.7834 26.9661 6.32534 25.8861C5.60309 25.3511 5.08138 24.8119 4.73428 24.3965C4.56052 24.1887 4.42964 24.0108 4.33844 23.8783C4.2928 23.8121 4.25698 23.7571 4.2306 23.7152C4.21741 23.6943 4.20656 23.6765 4.19801 23.6624L4.18689 23.6437L4.18261 23.6365L4.18078 23.6333L4.17996 23.6319C4.17996 23.6319 4.17917 23.6305 5.33326 22.9628L4.17917 23.6305L3.02142 21.6295H5.33326C6.80522 21.6295 7.67173 21.6239 8.52345 21.4007C9.33556 21.1877 10.2224 20.7477 11.5711 19.6988L13.2082 21.8037C11.6998 22.9769 10.487 23.6427 9.19948 23.9801C8.96378 24.0419 8.72861 24.0916 8.49284 24.1316C9.54585 24.7667 11.0719 25.3332 13.1904 25.3332C18.8373 25.3332 24 20.7911 24 13.3332V11.3094C24 9.48161 22.5182 7.99989 20.6904 7.99989C18.8626 7.99989 17.3809 9.48161 17.3809 11.3094V14.5049L16.2189 14.6555C14.0965 14.9307 9.90513 14.1324 6.7912 9.94349C6.67756 10.3694 6.64945 10.81 6.7083 11.2484C6.84661 12.2784 7.48872 13.4493 8.94865 14.4587L7.43217 16.6521C5.46353 15.2912 4.31992 13.4992 4.06536 11.6033C3.81118 9.71017 4.46706 7.86621 5.80204 6.48178L7.0727 5.16406Z" fill="white"/>
<path fill-rule="evenodd" clip-rule="evenodd" d="M7.28115 17.1734C8.05195 17.0628 8.74279 16.6481 9.06654 16.4129L10.6339 18.5702C10.1495 18.9222 9.04473 19.6142 7.66007 19.813C6.18257 20.0252 4.45483 19.656 3.00238 17.9748L5.02031 16.2314C5.81561 17.152 6.60321 17.2708 7.28115 17.1734Z" fill="white"/>
<path fill-rule="evenodd" clip-rule="evenodd" d="M26.3817 7.31095C26.5376 7.12171 26.6505 6.82657 26.6486 6.32285L29.3153 6.31299C29.3186 7.20831 29.1165 8.18488 28.4402 9.00609C27.7618 9.83008 26.7553 10.3166 25.5142 10.5296L25.0632 7.90133C25.8854 7.7602 26.2282 7.49744 26.3817 7.31095Z" fill="white"/>
</svg>
