<svg width="32" height="32" viewBox="0 0 32 32" fill="none" xmlns="http://www.w3.org/2000/svg">
<path fill-rule="evenodd" clip-rule="evenodd" d="M13.3333 12.7098V19.2901L18.8169 16L13.3333 12.7098ZM10.6666 21.6451C10.6666 22.6815 11.7973 23.3216 12.686 22.7884L22.0944 17.1433C22.9576 16.6255 22.9576 15.3745 22.0944 14.8567L12.686 9.2116C11.7973 8.67838 10.6666 9.31854 10.6666 10.3549V21.6451Z" fill="white"/>
<path fill-rule="evenodd" clip-rule="evenodd" d="M26.6666 23.3704V8.62936C26.6666 7.5739 26.0969 6.91496 25.4716 6.72309C23.3234 6.06404 20.0297 5.33317 16 5.33317C11.9702 5.33317 8.67652 6.06404 6.52836 6.72309C5.90299 6.91496 5.33329 7.5739 5.33329 8.62936V23.3704C5.33329 24.4257 5.90299 25.0848 6.52836 25.2766C8.67652 25.9356 11.9702 26.6665 16 26.6665C20.0297 26.6665 23.3234 25.9356 25.4716 25.2766C26.0969 25.0848 26.6666 24.4257 26.6666 23.3704ZM5.74623 4.1737C3.81495 4.76621 2.66663 6.60924 2.66663 8.62936V23.3704C2.66663 25.3905 3.81495 27.2334 5.74623 27.826C8.09067 28.5452 11.6513 29.3332 16 29.3332C20.3486 29.3332 23.9093 28.5452 26.2537 27.826C28.185 27.2334 29.3333 25.3905 29.3333 23.3704V8.62936C29.3333 6.60924 28.185 4.76621 26.2537 4.1737C23.9093 3.45444 20.3486 2.6665 16 2.6665C11.6513 2.6665 8.09067 3.45444 5.74623 4.1737Z" fill="white"/>
</svg>
